<svg width="52" height="52" viewBox="0 0 52 52" fill="none" xmlns="http://www.w3.org/2000/svg">
<rect width="52" height="52" rx="26" fill="white" fill-opacity="0.1"/>
<g clip-path="url(#clip0_483_3473)">
<path d="M35.9804 21.8801C35.9336 20.8174 35.7617 20.0868 35.5156 19.4537C35.2616 18.7818 34.8709 18.1801 34.359 17.68C33.8589 17.1721 33.2533 16.7774 32.5891 16.5274C31.9524 16.2813 31.2256 16.1094 30.163 16.0626C29.0923 16.0118 28.7525 16 26.0371 16C23.3217 16 22.9818 16.0118 21.9152 16.0586C20.8525 16.1055 20.1219 16.2775 19.489 16.5235C18.8169 16.7774 18.2153 17.1681 17.7152 17.68C17.2073 18.1801 16.8127 18.7857 16.5626 19.4499C16.3164 20.0868 16.1446 20.8134 16.0977 21.8761C16.0469 22.9467 16.0352 23.2866 16.0352 26.002C16.0352 28.7173 16.0469 29.0572 16.0938 30.1239C16.1406 31.1865 16.3126 31.9171 16.5588 32.5502C16.8127 33.2221 17.2073 33.8238 17.7152 34.3239C18.2153 34.8318 18.8209 35.2265 19.4851 35.4765C20.1219 35.7226 20.8486 35.8945 21.9114 35.9413C22.9779 35.9883 23.3179 35.9999 26.0333 35.9999C28.7486 35.9999 29.0885 35.9883 30.1552 35.9413C31.2178 35.8945 31.9484 35.7226 32.5813 35.4765C33.9254 34.9568 34.9881 33.8941 35.5078 32.5502C35.7538 31.9133 35.9258 31.1865 35.9726 30.1239C36.0195 29.0572 36.0312 28.7173 36.0312 26.002C36.0312 23.2866 36.0273 22.9467 35.9804 21.8801ZM34.1794 30.0457C34.1364 31.0225 33.9723 31.5499 33.8355 31.9015C33.4995 32.7728 32.808 33.4643 31.9367 33.8004C31.585 33.9372 31.0538 34.1012 30.0808 34.1441C29.026 34.1911 28.7096 34.2027 26.0411 34.2027C23.3725 34.2027 23.0522 34.1911 22.0011 34.1441C21.0244 34.1012 20.4969 33.9372 20.1453 33.8004C19.7117 33.6402 19.317 33.3862 18.9967 33.0541C18.6646 32.7298 18.4106 32.3391 18.2504 31.9055C18.1137 31.5539 17.9496 31.0225 17.9067 30.0497C17.8597 28.9948 17.8481 28.6783 17.8481 26.0097C17.8481 23.3412 17.8597 23.0209 17.9067 21.9699C17.9496 20.9932 18.1137 20.4657 18.2504 20.1141C18.4106 19.6804 18.6646 19.2859 19.0007 18.9654C19.3248 18.6333 19.7155 18.3793 20.1493 18.2192C20.5009 18.0825 21.0323 17.9184 22.0051 17.8754C23.06 17.8285 23.3765 17.8168 26.0449 17.8168C28.7174 17.8168 29.0337 17.8285 30.0848 17.8754C31.0616 17.9184 31.589 18.0825 31.9406 18.2192C32.3742 18.3793 32.7689 18.6333 33.0892 18.9654C33.4213 19.2897 33.6753 19.6804 33.8355 20.1141C33.9723 20.4657 34.1364 20.997 34.1794 21.9699C34.2262 23.0248 34.238 23.3412 34.238 26.0097C34.238 28.6783 34.2262 28.9908 34.1794 30.0457Z" fill="white"/>
<path d="M26.0371 20.8633C23.2007 20.8633 20.8994 23.1645 20.8994 26.001C20.8994 28.8376 23.2007 31.1387 26.0371 31.1387C28.8737 31.1387 31.1749 28.8376 31.1749 26.001C31.1749 23.1645 28.8737 20.8633 26.0371 20.8633ZM26.0371 29.3337C24.197 29.3337 22.7044 27.8413 22.7044 26.001C22.7044 24.1607 24.197 22.6683 26.0371 22.6683C27.8774 22.6683 29.3698 24.1607 29.3698 26.001C29.3698 27.8413 27.8774 29.3337 26.0371 29.3337Z" fill="white"/>
<path d="M32.5777 20.6604C32.5777 21.3227 32.0407 21.8598 31.3781 21.8598C30.7158 21.8598 30.1787 21.3227 30.1787 20.6604C30.1787 19.9978 30.7158 19.4609 31.3781 19.4609C32.0407 19.4609 32.5777 19.9978 32.5777 20.6604Z" fill="white"/>
</g>
<defs>
<clipPath id="clip0_483_3473">
<rect width="20" height="20" fill="white" transform="translate(16 16)"/>
</clipPath>
</defs>
</svg>
