<svg width="21" height="20" viewBox="0 0 21 20" fill="none" xmlns="http://www.w3.org/2000/svg">
<path d="M12.4416 7.8916L8.22498 12.1083C7.68331 11.5666 7.34998 10.8249 7.34998 9.99993C7.34998 8.34993 8.68331 7.0166 10.3333 7.0166C11.1583 7.0166 11.9 7.34994 12.4416 7.8916Z" stroke="#EB3340" stroke-width="1.5" stroke-linecap="round" stroke-linejoin="round"/>
<path d="M15.1833 4.8084C13.725 3.7084 12.0583 3.1084 10.3333 3.1084C7.39164 3.1084 4.64997 4.84173 2.74164 7.84173C1.99164 9.01673 1.99164 10.9917 2.74164 12.1667C3.39997 13.2001 4.16664 14.0917 4.99997 14.8084" stroke="#EB3340" stroke-width="1.5" stroke-linecap="round" stroke-linejoin="round"/>
<path d="M7.34998 16.2751C8.29998 16.6751 9.30831 16.8917 10.3333 16.8917C13.275 16.8917 16.0166 15.1584 17.925 12.1584C18.675 10.9834 18.675 9.0084 17.925 7.8334C17.65 7.40006 17.35 6.99173 17.0416 6.6084" stroke="#EB3340" stroke-width="1.5" stroke-linecap="round" stroke-linejoin="round"/>
<path d="M13.2583 10.5833C13.0417 11.7583 12.0833 12.7166 10.9083 12.9333" stroke="#EB3340" stroke-width="1.5" stroke-linecap="round" stroke-linejoin="round"/>
<path d="M8.225 12.1084L2 18.3334" stroke="#292D32" stroke-width="1.5" stroke-linecap="round" stroke-linejoin="round"/>
<path d="M18.6667 1.66675L12.4417 7.89175" stroke="#EB3340" stroke-width="1.5" stroke-linecap="round" stroke-linejoin="round"/>
</svg>
