<svg width="21" height="20" viewBox="0 0 21 20" fill="none" xmlns="http://www.w3.org/2000/svg">
<path d="M12.775 7.8916L8.55835 12.1083C8.01668 11.5666 7.68335 10.8249 7.68335 9.99993C7.68335 8.34993 9.01668 7.0166 10.6667 7.0166C11.4917 7.0166 12.2333 7.34994 12.775 7.8916Z" stroke="#EB3340" stroke-width="1.5" stroke-linecap="round" stroke-linejoin="round"/>
<path d="M15.5166 4.8084C14.0583 3.7084 12.3916 3.1084 10.6666 3.1084C7.72495 3.1084 4.98328 4.84173 3.07495 7.84173C2.32495 9.01673 2.32495 10.9917 3.07495 12.1667C3.73328 13.2001 4.49995 14.0917 5.33328 14.8084" stroke="#EB3340" stroke-width="1.5" stroke-linecap="round" stroke-linejoin="round"/>
<path d="M7.68335 16.2751C8.63335 16.6751 9.64168 16.8917 10.6667 16.8917C13.6083 16.8917 16.35 15.1584 18.2584 12.1584C19.0084 10.9834 19.0084 9.0084 18.2584 7.8334C17.9834 7.40006 17.6833 6.99173 17.375 6.6084" stroke="#EB3340" stroke-width="1.5" stroke-linecap="round" stroke-linejoin="round"/>
<path d="M13.5916 10.5833C13.3749 11.7583 12.4166 12.7166 11.2416 12.9333" stroke="#EB3340" stroke-width="1.5" stroke-linecap="round" stroke-linejoin="round"/>
</svg>
