<svg width="52" height="52" viewBox="0 0 52 52" fill="none" xmlns="http://www.w3.org/2000/svg">
<rect width="52" height="52" rx="26" fill="white" fill-opacity="0.1"/>
<g clip-path="url(#clip0_483_3470)">
<path d="M36 19.7988C35.2563 20.125 34.4637 20.3412 33.6375 20.4462C34.4875 19.9388 35.1363 19.1412 35.4412 18.18C34.6488 18.6525 33.7738 18.9863 32.8412 19.1725C32.0887 18.3713 31.0162 17.875 29.8462 17.875C27.5763 17.875 25.7487 19.7175 25.7487 21.9763C25.7487 22.3012 25.7762 22.6137 25.8438 22.9112C22.435 22.745 19.4188 21.1113 17.3925 18.6225C17.0387 19.2363 16.8313 19.9388 16.8313 20.695C16.8313 22.115 17.5625 23.3737 18.6525 24.1025C17.9937 24.09 17.3475 23.8988 16.8 23.5975C16.8 23.61 16.8 23.6262 16.8 23.6425C16.8 25.635 18.2212 27.29 20.085 27.6712C19.7512 27.7625 19.3875 27.8062 19.01 27.8062C18.7475 27.8062 18.4825 27.7913 18.2337 27.7362C18.765 29.36 20.2725 30.5538 22.065 30.5925C20.67 31.6838 18.8988 32.3412 16.9813 32.3412C16.645 32.3412 16.3225 32.3263 16 32.285C17.8162 33.4563 19.9688 34.125 22.29 34.125C29.835 34.125 33.96 27.875 33.96 22.4575C33.96 22.2762 33.9538 22.1013 33.945 21.9275C34.7588 21.35 35.4425 20.6288 36 19.7988Z" fill="white"/>
</g>
<defs>
<clipPath id="clip0_483_3470">
<rect width="20" height="20" fill="white" transform="translate(16 16)"/>
</clipPath>
</defs>
</svg>
