<svg width="912" height="747" viewBox="0 0 912 747" fill="none" xmlns="http://www.w3.org/2000/svg">
<g id="No Results">
<g id="circle">
<path id="Stroke 1" d="M30.7191 343.122V350.842" stroke="#FFC5C9" stroke-width="2.921" stroke-linecap="round"/>
<g id="Group 8">
<path id="Stroke 2" d="M13.3774 347.304L19.686 353.798" stroke="#FFC5C9" stroke-width="2.921" stroke-linecap="round"/>
<path id="Stroke 4" d="M5.99927 364.591H14.9196" stroke="#FFC5C9" stroke-width="2.921" stroke-linecap="round"/>
<path id="Stroke 6" d="M12.6549 382.186L18.9635 375.692" stroke="#FFC5C9" stroke-width="2.921" stroke-linecap="round"/>
</g>
<path id="Stroke 9" d="M30.7191 384.297V376.577" stroke="#FFC5C9" stroke-width="2.921" stroke-linecap="round"/>
<path id="Stroke 10" d="M43.586 379.15L38.4391 374.003" stroke="#FFC5C9" stroke-width="2.921" stroke-linecap="round"/>
<path id="Stroke 11" d="M53.8794 366.283H46.1591" stroke="#FFC5C9" stroke-width="2.921" stroke-linecap="round"/>
<path id="Stroke 12" d="M48.7331 348.269L43.5862 353.416" stroke="#FFC5C9" stroke-width="2.921" stroke-linecap="round"/>
<path id="Stroke 13" d="M445.044 6V11.1469" stroke="#FFC5C9" stroke-width="2.921" stroke-linecap="round"/>
<path id="Stroke 15" d="M429.604 21.4409H434.751" stroke="#FFC5C9" stroke-width="2.921" stroke-linecap="round"/>
<path id="Stroke 16" d="M445.044 36.8816V31.7347" stroke="#FFC5C9" stroke-width="2.921" stroke-linecap="round"/>
<path id="Stroke 17" d="M457.911 21.4409H452.764" stroke="#FFC5C9" stroke-width="2.921" stroke-linecap="round"/>
<path id="Stroke 18" d="M146.525 222.17V229.89" stroke="#FFC5C9" stroke-width="2.921" stroke-linecap="round"/>
<path id="Stroke 19" d="M123.363 245.331H131.084" stroke="#FFC5C9" stroke-width="2.921" stroke-linecap="round"/>
<path id="Stroke 20" d="M146.525 265.918V258.198" stroke="#FFC5C9" stroke-width="2.921" stroke-linecap="round"/>
<path id="Stroke 21" d="M167.112 245.331H159.392" stroke="#FFC5C9" stroke-width="2.921" stroke-linecap="round"/>
<g id="Group 42">
<path id="Stroke 22" d="M700.469 502.777C706.619 502.777 711.607 507.766 711.607 513.918C711.607 520.071 706.619 525.058 700.469 525.058C694.319 525.058 689.331 520.071 689.331 513.918" stroke="#FFC5C9" stroke-width="2.921" stroke-linecap="round"/>
<path id="Fill 26" fill-rule="evenodd" clip-rule="evenodd" d="M751.44 401.703C758.053 399.64 768.191 391.552 770.537 382.85C772.665 390.542 781.585 399.64 789.634 400.328C780.574 403.536 771.911 413.067 770.537 420.553C769.602 412.922 757.621 402.815 751.44 401.703Z" fill="#FFC5C9"/>
<path id="Fill 28" fill-rule="evenodd" clip-rule="evenodd" d="M72.5934 499.345C75.9012 498.313 80.9676 494.271 82.1408 489.92C83.2048 493.764 87.6639 498.313 91.6882 498.659C87.1592 500.261 82.829 505.027 82.1408 508.77C81.6733 504.955 75.6827 499.9 72.5934 499.345Z" fill="#FFC5C9"/>
<path id="Fill 30" fill-rule="evenodd" clip-rule="evenodd" d="M133.976 141.356C133.976 146.129 130.109 149.995 125.34 149.995C120.568 149.995 116.703 146.129 116.703 141.356C116.703 136.586 120.568 132.718 125.34 132.718C130.109 132.718 133.976 136.586 133.976 141.356Z" fill="#FFC5C9"/>
<path id="Fill 32" fill-rule="evenodd" clip-rule="evenodd" d="M710.674 164.552C710.674 172.526 704.209 178.99 696.239 178.99C688.265 178.99 681.802 172.526 681.802 164.552C681.802 156.578 688.265 150.114 696.239 150.114C704.209 150.114 710.674 156.578 710.674 164.552Z" fill="#FFC5C9"/>
<path id="Fill 34" fill-rule="evenodd" clip-rule="evenodd" d="M910.617 125.433C910.617 131.76 905.491 136.886 899.169 136.886C892.844 136.886 887.718 131.76 887.718 125.433C887.718 119.107 892.844 113.98 899.169 113.98C905.491 113.98 910.617 119.107 910.617 125.433Z" fill="#FFC5C9"/>
<path id="Stroke 36" fill-rule="evenodd" clip-rule="evenodd" d="M295.381 660.345C295.381 664.334 292.15 667.566 288.163 667.566C284.178 667.566 280.947 664.334 280.947 660.345C280.947 656.357 284.178 653.125 288.163 653.125C292.15 653.125 295.381 656.357 295.381 660.345Z" stroke="#FFC5C9" stroke-width="2.921" stroke-linecap="round"/>
<path id="Stroke 38" fill-rule="evenodd" clip-rule="evenodd" d="M291.087 85.8589C291.087 90.6317 287.22 94.4975 282.45 94.4975C277.681 94.4975 273.814 90.6317 273.814 85.8589C273.814 81.0884 277.681 77.2203 282.45 77.2203C287.22 77.2203 291.087 81.0884 291.087 85.8589Z" stroke="#FFC5C9" stroke-width="2.921" stroke-linecap="round"/>
<path id="Stroke 40" fill-rule="evenodd" clip-rule="evenodd" d="M511.381 740.299C505.862 742.399 499.686 739.625 497.586 734.108C495.487 728.587 498.257 722.407 503.778 720.309C509.294 718.209 515.471 720.98 517.57 726.5C519.672 732.021 516.899 738.198 511.381 740.299Z" stroke="#FFC5C9" stroke-width="2.921" stroke-linecap="round"/>
</g>
</g>
<g id="search">
<g id="documents">
<path id="Fill 1" fill-rule="evenodd" clip-rule="evenodd" d="M508.091 536.131H297.056C282.203 536.131 270.044 523.936 270.044 509.033V208.087C270.044 193.183 282.203 180.995 297.056 180.995H508.091C522.951 180.995 535.109 193.183 535.109 208.087V509.033C535.109 523.936 522.951 536.131 508.091 536.131Z" fill="#FFD6D9"/>
<path id="Fill 3" fill-rule="evenodd" clip-rule="evenodd" d="M490.077 548.998H279.042C264.188 548.998 252.03 536.803 252.03 521.9V220.954C252.03 206.05 264.188 193.862 279.042 193.862H490.077C504.936 193.862 517.095 206.05 517.095 220.954V521.9C517.095 536.803 504.936 548.998 490.077 548.998Z" fill="#FFE2E4"/>
<path id="Fill 5" fill-rule="evenodd" clip-rule="evenodd" d="M472.555 559.156H261.083C246.199 559.156 234.015 547.012 234.015 532.17V232.47C234.015 217.628 246.199 205.49 261.083 205.49H472.555C487.445 205.49 499.629 217.628 499.629 232.47V532.17C499.629 547.012 487.445 559.156 472.555 559.156Z" fill="#FFEDEE"/>
<path id="Fill 8" fill-rule="evenodd" clip-rule="evenodd" d="M472.555 559.156H261.083C246.199 559.156 234.015 547.012 234.015 532.17V232.47C234.015 217.628 246.199 205.49 261.083 205.49H472.555C487.445 205.49 499.629 217.628 499.629 232.47V532.17C499.629 547.012 487.445 559.156 472.555 559.156Z" fill="#FFEDEE"/>
<path id="Fill 11" fill-rule="evenodd" clip-rule="evenodd" d="M442.075 296.8H285.878C281.417 296.8 277.766 293.326 277.766 289.082C277.766 284.833 281.417 281.359 285.878 281.359H442.075C446.535 281.359 450.187 284.833 450.187 289.082C450.187 293.326 446.535 296.8 442.075 296.8Z" fill="#FFD6D9"/>
<path id="Fill 13" fill-rule="evenodd" clip-rule="evenodd" d="M442.075 343.122H285.878C281.417 343.122 277.766 339.648 277.766 335.404C277.766 331.155 281.417 327.681 285.878 327.681H442.075C446.535 327.681 450.187 331.155 450.187 335.404C450.187 339.648 446.535 343.122 442.075 343.122Z" fill="#FFD6D9"/>
<path id="Fill 15" fill-rule="evenodd" clip-rule="evenodd" d="M442.075 389.444H285.878C281.417 389.444 277.766 385.97 277.766 381.726C277.766 377.483 281.417 374.003 285.878 374.003H442.075C446.535 374.003 450.187 377.483 450.187 381.726C450.187 385.97 446.535 389.444 442.075 389.444Z" fill="#FFD6D9"/>
<path id="Fill 17" fill-rule="evenodd" clip-rule="evenodd" d="M442.075 435.766H285.878C281.417 435.766 277.766 432.293 277.766 428.049C277.766 423.799 281.417 420.326 285.878 420.326H442.075C446.535 420.326 450.187 423.799 450.187 428.049C450.187 432.293 446.535 435.766 442.075 435.766Z" fill="#FFD6D9"/>
<path id="Fill 19" fill-rule="evenodd" clip-rule="evenodd" d="M367.41 482.088H285.912C281.432 482.088 277.766 478.615 277.766 474.371C277.766 470.121 281.432 466.648 285.912 466.648H367.41C371.89 466.648 375.557 470.121 375.557 474.371C375.557 478.615 371.89 482.088 367.41 482.088Z" fill="#FFD6D9"/>
</g>
<g id="search_2">
<path id="Fill 21" fill-rule="evenodd" clip-rule="evenodd" d="M531.907 422.221C500.673 453.449 452.321 456.972 417.217 432.862C412.731 429.725 408.46 426.202 404.479 422.221C402.429 420.178 400.497 418.07 398.676 415.85C395.035 411.417 391.845 406.689 389.232 401.804C384.628 393.554 381.497 384.799 379.788 375.749C374.274 347.37 382.519 316.823 404.479 294.874C426.49 272.859 457.043 264.667 485.427 270.129C494.471 271.89 503.234 275.02 511.486 279.571C516.378 282.243 521.041 285.431 525.482 289.072C527.695 290.886 529.804 292.824 531.848 294.874C535.836 298.855 539.412 303.118 542.49 307.61C566.611 342.701 563.081 391.052 531.907 422.221Z" fill="white" fill-opacity="0.1"/>
<path id="Fill 23" fill-rule="evenodd" clip-rule="evenodd" d="M523.166 416.071C490.673 448.571 438.014 448.565 405.514 416.071C373.056 383.613 373.056 330.948 405.556 298.454C438.014 265.997 490.673 265.997 523.13 298.454C555.624 330.948 555.624 383.613 523.166 416.071ZM539.843 281.759C498.134 240.05 430.546 240.05 388.838 281.759C347.135 323.462 347.099 391.092 388.801 432.801C426.761 470.749 486.259 474.171 528.107 443.013C532.194 439.966 536.13 436.55 539.885 432.801C543.634 429.046 547.05 425.11 550.092 421.022C581.249 379.168 577.797 319.713 539.843 281.759Z" fill="#FFD6D9"/>
<path id="Fill 25" fill-rule="evenodd" clip-rule="evenodd" d="M703.985 590.023L702.234 591.774C690.649 603.364 671.679 603.364 660.089 591.774L553.124 484.809L597.02 440.913L703.985 547.878C715.576 559.468 715.576 578.432 703.985 590.023Z" fill="url(#paint0_linear_483_4306)"/>
<path id="Fill 27" fill-rule="evenodd" clip-rule="evenodd" d="M552.398 417.752L584.007 449.36L561.567 471.794L529.964 440.186C534.135 437.076 538.146 433.59 541.983 429.765C545.809 425.939 549.295 421.923 552.398 417.752Z" fill="#FFD6D9"/>
<path id="Fill 29" fill-rule="evenodd" clip-rule="evenodd" d="M702.384 546.562L658.768 590.173L650.915 582.315L694.526 538.704L702.384 546.562Z" fill="#EF545F"/>
<path id="Fill 31" fill-rule="evenodd" clip-rule="evenodd" d="M599.446 442.423L554.635 487.235L547.977 480.578L592.788 435.766L599.446 442.423Z" fill="url(#paint1_linear_483_4306)"/>
<path id="Fill 33" fill-rule="evenodd" clip-rule="evenodd" d="M501.656 287.274L391.761 397.164C387.622 389.747 384.808 381.876 383.277 373.74L478.231 278.785C486.361 280.375 494.238 283.183 501.656 287.274Z" fill="white" fill-opacity="0.5"/>
<path id="Fill 35" fill-rule="evenodd" clip-rule="evenodd" d="M537.684 313.394L418.876 425.472C414.621 422.671 410.571 419.519 406.795 415.956C404.851 414.122 403.012 412.241 401.292 410.255L521.548 296.8C523.653 298.429 525.653 300.163 527.591 301.997C531.368 305.56 534.765 309.375 537.684 313.394Z" fill="white" fill-opacity="0.5"/>
</g>
</g>
</g>
<defs>
<linearGradient id="paint0_linear_483_4306" x1="632.901" y1="361.136" x2="473.347" y2="520.69" gradientUnits="userSpaceOnUse">
<stop stop-color="#FF8960"/>
<stop offset="1" stop-color="#FF62A5"/>
</linearGradient>
<linearGradient id="paint1_linear_483_4306" x1="573.711" y1="410.032" x2="522.242" y2="461.501" gradientUnits="userSpaceOnUse">
<stop stop-color="#FF404E"/>
<stop offset="1" stop-color="#FF62A5"/>
</linearGradient>
</defs>
</svg>
